<!-- Generated by IcoMoon.io -->
<svg version="1.1" xmlns="http://www.w3.org/2000/svg" width="80" height="80" viewBox="0 0 80 80">
<path d="M5.72 31.609l58.716 32.131c0.715 0.382 1.193 1.125 1.193 1.977 0 0.205-0.028 0.403-0.080 0.592l0.002-0.015c-0.297 0.987-1.197 1.695-2.262 1.695-0.010 0-0.023 0-0.033 0h-48.596c-2.395 0-4.415-1.71-4.712-3.987l-4.227-32.389z"></path>
<path d="M74.188 31.609l-4.227 32.391c-0.297 2.277-2.317 3.985-4.71 3.985h-48.604c-0.010 0-0.023 0-0.032 0-1.063 0-1.962-0.702-2.257-1.67l-0.005-0.017c-0.047-0.175-0.077-0.375-0.077-0.58 0-0.853 0.477-1.595 1.18-1.97l0.012-0.005 58.716-32.131z"></path>
<path d="M38.531 20.924l25.984 39.801c0.945 1.447 1.017 3.292 0.19 4.81-0.82 1.477-2.37 2.462-4.15 2.462 0 0-0.002 0-0.002 0h-44.041c-1.735 0-3.327-0.945-4.152-2.462-0.36-0.65-0.572-1.422-0.572-2.247 0-0.955 0.285-1.84 0.775-2.582l-0.010 0.018 25.984-39.801z"></path>
<path d="M38.489 21.009l29.147 39.801c1.002 1.447 1.080 3.292 0.203 4.81-0.903 1.485-2.512 2.462-4.352 2.462-0.020 0-0.042 0-0.062 0h-23.359l-1.575-47.074z"></path>
<path d="M34.669 16.197c0 2.365 1.917 4.28 4.28 4.28s4.28-1.917 4.28-4.28v0c0-2.362-1.915-4.28-4.28-4.28s-4.28 1.915-4.28 4.28v0zM71.44 27.047c0 2.362 1.915 4.28 4.28 4.28s4.28-1.915 4.28-4.28v0c0-2.362-1.915-4.28-4.28-4.28s-4.28 1.915-4.28 4.28v0zM0 27.057c0 2.362 1.915 4.28 4.28 4.28s4.28-1.915 4.28-4.28v0c0-2.362-1.915-4.28-4.28-4.28s-4.28 1.915-4.28 4.28v0z"></path>
</svg>
